<svg width="20" height="21" viewBox="0 0 20 21" fill="none" xmlns="http://www.w3.org/2000/svg">
<g opacity="0.8">
<path d="M18.7931 4.16705H1.2069C0.540345 4.16705 0 3.45195 0 2.56982C0 1.6877 0.540345 0.972595 1.2069 0.972595H18.7931C19.4597 0.972595 20 1.6877 20 2.56982C20 3.45195 19.4597 4.16705 18.7931 4.16705Z" fill="white"/>
<path d="M18.7931 12.1533H1.2069C0.540345 12.1533 0 11.4382 0 10.5561C0 9.67396 0.540345 8.95886 1.2069 8.95886H18.7931C19.4597 8.95886 20 9.67396 20 10.5561C20 11.4382 19.4597 12.1533 18.7931 12.1533Z" fill="white"/>
<path d="M18.7931 20.1398H1.2069C0.540345 20.1398 0 19.4247 0 18.5426C0 17.6605 0.540345 16.9454 1.2069 16.9454H18.7931C19.4597 16.9454 20 17.6605 20 18.5426C20 19.4247 19.4597 20.1398 18.7931 20.1398Z" fill="white"/>
</g>
</svg>
