<svg width="12" height="13" viewBox="0 0 12 13" fill="none" xmlns="http://www.w3.org/2000/svg">
<path d="M10.6999 0.5C10.5465 0.502005 10.4 0.563824 10.2916 0.672284C10.1831 0.780745 10.1213 0.927272 10.1193 1.08065V2.96194L9.46895 2.31161C8.79618 1.63314 7.96114 1.1379 7.04312 0.872944C6.12511 0.607985 5.1546 0.582098 4.22377 0.797741C3.29294 1.01338 2.43268 1.4634 1.7247 2.10505C1.01672 2.74669 0.484512 3.55867 0.178627 4.46387C0.146774 4.53766 0.130804 4.61733 0.131754 4.69769C0.132704 4.77806 0.150553 4.85732 0.18414 4.93034C0.217728 5.00336 0.266302 5.06849 0.326708 5.12151C0.387114 5.17452 0.457998 5.21424 0.534756 5.23806C0.598792 5.24919 0.664268 5.24919 0.728304 5.23806C0.849425 5.23683 0.967216 5.19825 1.06559 5.12759C1.16397 5.05692 1.23814 4.95761 1.27798 4.84323C1.49426 4.20073 1.85743 3.61753 2.33863 3.14C3.17441 2.30746 4.30604 1.84002 5.48572 1.84002C6.66541 1.84002 7.79703 2.30746 8.63282 3.14L9.28314 3.79032H7.41734C7.26334 3.79032 7.11565 3.8515 7.00676 3.96039C6.89787 4.06928 6.83669 4.21697 6.83669 4.37097C6.83669 4.52496 6.89787 4.67265 7.00676 4.78155C7.11565 4.89044 7.26334 4.95161 7.41734 4.95161H10.6999C10.7765 4.95265 10.8524 4.93835 10.9233 4.90954C10.9943 4.88072 11.0587 4.83799 11.1128 4.78387C11.1669 4.72974 11.2097 4.66531 11.2385 4.5944C11.2673 4.52348 11.2816 4.44751 11.2806 4.37097V1.08065C11.2806 0.926648 11.2194 0.778959 11.1105 0.670067C11.0016 0.561175 10.8539 0.5 10.6999 0.5Z" fill="#1C77D6"/>
<path d="M10.8935 7.80067C10.8189 7.77137 10.7392 7.7576 10.6591 7.7602C10.5791 7.76279 10.5004 7.7817 10.428 7.81577C10.3555 7.84984 10.2907 7.89834 10.2376 7.95831C10.1846 8.01828 10.1443 8.08846 10.1193 8.16454C9.90298 8.80704 9.53981 9.39023 9.05862 9.86776C8.22283 10.7003 7.09121 11.1677 5.91153 11.1677C4.73184 11.1677 3.60022 10.7003 2.76443 9.86776L2.11411 9.21744H4.02637C4.18036 9.21744 4.32805 9.15627 4.43694 9.04737C4.54584 8.93848 4.60701 8.79079 4.60701 8.6368C4.60701 8.4828 4.54584 8.33511 4.43694 8.22622C4.32805 8.11732 4.18036 8.05615 4.02637 8.05615H0.743784C0.667244 8.05511 0.591272 8.06942 0.520354 8.09823C0.449437 8.12704 0.385012 8.16977 0.330885 8.2239C0.276759 8.27802 0.234028 8.34245 0.205216 8.41337C0.176405 8.48428 0.162097 8.56026 0.163139 8.6368V11.9194C0.163139 12.0734 0.224314 12.2211 0.333206 12.33C0.442098 12.4388 0.589787 12.5 0.743784 12.5C0.897781 12.5 1.04547 12.4388 1.15436 12.33C1.26325 12.2211 1.32443 12.0734 1.32443 11.9194V10.0381L1.97475 10.6884C2.64752 11.3669 3.48256 11.8621 4.40058 12.1271C5.31859 12.392 6.2891 12.4179 7.21993 12.2023C8.15076 11.9866 9.01102 11.5366 9.719 10.895C10.427 10.2533 10.9592 9.44135 11.2651 8.53615C11.2903 8.46352 11.3007 8.38656 11.2956 8.30983C11.2905 8.23311 11.27 8.1582 11.2353 8.08956C11.2006 8.02093 11.1525 7.95998 11.0938 7.91035C11.035 7.86072 10.9669 7.82341 10.8935 7.80067Z" fill="#1C77D6"/>
</svg>
